<svg width="216" height="52" viewBox="0 0 216 52" fill="none" xmlns="http://www.w3.org/2000/svg">
<mask id="mask0_6_196" style="mask-type:luminance" maskUnits="userSpaceOnUse" x="0" y="0" width="216" height="52">
<path d="M216 0H0V52H216V0Z" fill="white"/>
</mask>
<g mask="url(#mask0_6_196)">
<path d="M208.575 15V22.675H203.375V15H195.675V9.82502H203.375V2.15002H208.575V9.82502H216.2V15H208.575Z" fill="black"/>
<path d="M33.225 42H26.875V21.475H33.225V24.8H33.1C33.2167 24.4 33.5333 23.8917 34.05 23.275C34.5833 22.6583 35.3167 22.1083 36.25 21.625C37.1833 21.125 38.3083 20.875 39.625 20.875C40.575 20.875 41.4333 21.0167 42.2 21.3C42.9833 21.5667 43.5417 21.8333 43.875 22.1L41.375 27.3C41.1583 27.0333 40.75 26.7583 40.15 26.475C39.5667 26.1917 38.8333 26.05 37.95 26.05C36.9 26.05 36.025 26.3417 35.325 26.925C34.625 27.4917 34.1 28.1917 33.75 29.025C33.4 29.8417 33.225 30.6083 33.225 31.325V42ZM49.982 33.15C50.032 34.0833 50.282 34.9167 50.732 35.65C51.182 36.3833 51.832 36.9583 52.682 37.375C53.5487 37.7917 54.582 38 55.782 38C56.8654 38 57.8154 37.8667 58.632 37.6C59.4654 37.3333 60.1654 37.0083 60.732 36.625C61.3154 36.225 61.7487 35.8417 62.032 35.475L64.657 39.375C64.1904 39.9583 63.5654 40.5 62.782 41C62.0154 41.4833 61.032 41.8667 59.832 42.15C58.6487 42.45 57.1654 42.6 55.382 42.6C53.132 42.6 51.157 42.1583 49.457 41.275C47.757 40.3917 46.432 39.1167 45.482 37.45C44.532 35.7833 44.057 33.8 44.057 31.5C44.057 29.5 44.482 27.7 45.332 26.1C46.182 24.4833 47.4154 23.2083 49.032 22.275C50.6654 21.3417 52.6237 20.875 54.907 20.875C57.057 20.875 58.9154 21.2917 60.482 22.125C62.0654 22.9417 63.2904 24.1417 64.157 25.725C65.0237 27.3083 65.457 29.2417 65.457 31.525C65.457 31.6583 65.4487 31.9333 65.432 32.35C65.432 32.75 65.4154 33.0167 65.382 33.15H49.982ZM59.507 29.225C59.4904 28.6917 59.3237 28.1167 59.007 27.5C58.707 26.8833 58.232 26.3583 57.582 25.925C56.932 25.4917 56.0654 25.275 54.982 25.275C53.8987 25.275 53.007 25.4833 52.307 25.9C51.6237 26.3167 51.107 26.8333 50.757 27.45C50.407 28.05 50.207 28.6417 50.157 29.225H59.507ZM67.4699 21.475H71.1699V13.05H77.4699V21.475H82.3199V26.75H77.4699V34.175C77.4699 35.1583 77.6283 35.925 77.9449 36.475C78.2616 37.0083 78.7616 37.275 79.4449 37.275C79.9616 37.275 80.3866 37.175 80.7199 36.975C81.0533 36.7583 81.2533 36.6083 81.3199 36.525L83.5699 41.075C83.4699 41.175 83.1449 41.35 82.5949 41.6C82.0616 41.85 81.3699 42.075 80.5199 42.275C79.6866 42.4917 78.7449 42.6 77.6949 42.6C75.8116 42.6 74.2533 42.0583 73.0199 40.975C71.7866 39.875 71.1699 38.175 71.1699 35.875V26.75H67.4699V21.475ZM92.2492 31.3C92.2492 33.1333 92.6159 34.6 93.3492 35.7C94.0826 36.7833 95.2659 37.325 96.8992 37.325C98.5492 37.325 99.7409 36.7833 100.474 35.7C101.208 34.6 101.574 33.1333 101.574 31.3V21.475H107.824V32.025C107.824 34.1417 107.399 36 106.549 37.6C105.699 39.1833 104.458 40.4167 102.824 41.3C101.208 42.1667 99.2326 42.6 96.8992 42.6C94.5826 42.6 92.6076 42.1667 90.9742 41.3C89.3576 40.4167 88.1242 39.1833 87.2742 37.6C86.4242 36 85.9992 34.1417 85.9992 32.025V21.475H92.2492V31.3ZM118.383 42H112.033V21.475H118.383V24.8H118.258C118.375 24.4 118.692 23.8917 119.208 23.275C119.742 22.6583 120.475 22.1083 121.408 21.625C122.342 21.125 123.467 20.875 124.783 20.875C125.733 20.875 126.592 21.0167 127.358 21.3C128.142 21.5667 128.7 21.8333 129.033 22.1L126.533 27.3C126.317 27.0333 125.908 26.7583 125.308 26.475C124.725 26.1917 123.992 26.05 123.108 26.05C122.058 26.05 121.183 26.3417 120.483 26.925C119.783 27.4917 119.258 28.1917 118.908 29.025C118.558 29.8417 118.383 30.6083 118.383 31.325V42ZM144.004 20.875C145.404 20.875 146.77 21.1667 148.104 21.75C149.437 22.3167 150.529 23.225 151.379 24.475C152.245 25.725 152.679 27.3583 152.679 29.375V42H146.304V30.475C146.304 28.7917 145.904 27.5417 145.104 26.725C144.32 25.9083 143.287 25.5 142.004 25.5C141.17 25.5 140.37 25.7333 139.604 26.2C138.854 26.65 138.237 27.2833 137.754 28.1C137.287 28.9 137.054 29.8167 137.054 30.85V42H130.704V21.475H137.054V24.75C137.237 24.1833 137.654 23.6 138.304 23C138.954 22.4 139.779 21.9 140.779 21.5C141.779 21.0833 142.854 20.875 144.004 20.875ZM180.027 9H186.302L199.002 42H192.352L189.777 34.875H176.577L173.952 42H167.277L180.027 9ZM178.627 29.35H187.727L183.202 16.55H183.127L178.627 29.35Z" fill="black"/>
<mask id="mask1_6_196" style="mask-type:luminance" maskUnits="userSpaceOnUse" x="25" y="8" width="176" height="36">
<path d="M201 8H25V44H201V8Z" fill="white"/>
<path d="M33.225 42H26.875V21.475H33.225V24.8H33.1C33.2167 24.4 33.5333 23.8917 34.05 23.275C34.5833 22.6583 35.3167 22.1083 36.25 21.625C37.1833 21.125 38.3083 20.875 39.625 20.875C40.575 20.875 41.4333 21.0167 42.2 21.3C42.9833 21.5667 43.5417 21.8333 43.875 22.1L41.375 27.3C41.1583 27.0333 40.75 26.7583 40.15 26.475C39.5667 26.1917 38.8333 26.05 37.95 26.05C36.9 26.05 36.025 26.3417 35.325 26.925C34.625 27.4917 34.1 28.1917 33.75 29.025C33.4 29.8417 33.225 30.6083 33.225 31.325V42ZM49.982 33.15C50.032 34.0833 50.282 34.9167 50.732 35.65C51.182 36.3833 51.832 36.9583 52.682 37.375C53.5487 37.7917 54.582 38 55.782 38C56.8654 38 57.8154 37.8667 58.632 37.6C59.4654 37.3333 60.1654 37.0083 60.732 36.625C61.3154 36.225 61.7487 35.8417 62.032 35.475L64.657 39.375C64.1904 39.9583 63.5654 40.5 62.782 41C62.0154 41.4833 61.032 41.8667 59.832 42.15C58.6487 42.45 57.1654 42.6 55.382 42.6C53.132 42.6 51.157 42.1583 49.457 41.275C47.757 40.3917 46.432 39.1167 45.482 37.45C44.532 35.7833 44.057 33.8 44.057 31.5C44.057 29.5 44.482 27.7 45.332 26.1C46.182 24.4833 47.4154 23.2083 49.032 22.275C50.6654 21.3417 52.6237 20.875 54.907 20.875C57.057 20.875 58.9154 21.2917 60.482 22.125C62.0654 22.9417 63.2904 24.1417 64.157 25.725C65.0237 27.3083 65.457 29.2417 65.457 31.525C65.457 31.6583 65.4487 31.9333 65.432 32.35C65.432 32.75 65.4154 33.0167 65.382 33.15H49.982ZM59.507 29.225C59.4904 28.6917 59.3237 28.1167 59.007 27.5C58.707 26.8833 58.232 26.3583 57.582 25.925C56.932 25.4917 56.0654 25.275 54.982 25.275C53.8987 25.275 53.007 25.4833 52.307 25.9C51.6237 26.3167 51.107 26.8333 50.757 27.45C50.407 28.05 50.207 28.6417 50.157 29.225H59.507ZM67.4699 21.475H71.1699V13.05H77.4699V21.475H82.3199V26.75H77.4699V34.175C77.4699 35.1583 77.6283 35.925 77.9449 36.475C78.2616 37.0083 78.7616 37.275 79.4449 37.275C79.9616 37.275 80.3866 37.175 80.7199 36.975C81.0533 36.7583 81.2533 36.6083 81.3199 36.525L83.5699 41.075C83.4699 41.175 83.1449 41.35 82.5949 41.6C82.0616 41.85 81.3699 42.075 80.5199 42.275C79.6866 42.4917 78.7449 42.6 77.6949 42.6C75.8116 42.6 74.2533 42.0583 73.0199 40.975C71.7866 39.875 71.1699 38.175 71.1699 35.875V26.75H67.4699V21.475ZM92.2492 31.3C92.2492 33.1333 92.6159 34.6 93.3492 35.7C94.0826 36.7833 95.2659 37.325 96.8992 37.325C98.5492 37.325 99.7409 36.7833 100.474 35.7C101.208 34.6 101.574 33.1333 101.574 31.3V21.475H107.824V32.025C107.824 34.1417 107.399 36 106.549 37.6C105.699 39.1833 104.458 40.4167 102.824 41.3C101.208 42.1667 99.2326 42.6 96.8992 42.6C94.5826 42.6 92.6076 42.1667 90.9742 41.3C89.3576 40.4167 88.1242 39.1833 87.2742 37.6C86.4242 36 85.9992 34.1417 85.9992 32.025V21.475H92.2492V31.3ZM118.383 42H112.033V21.475H118.383V24.8H118.258C118.375 24.4 118.692 23.8917 119.208 23.275C119.742 22.6583 120.475 22.1083 121.408 21.625C122.342 21.125 123.467 20.875 124.783 20.875C125.733 20.875 126.592 21.0167 127.358 21.3C128.142 21.5667 128.7 21.8333 129.033 22.1L126.533 27.3C126.317 27.0333 125.908 26.7583 125.308 26.475C124.725 26.1917 123.992 26.05 123.108 26.05C122.058 26.05 121.183 26.3417 120.483 26.925C119.783 27.4917 119.258 28.1917 118.908 29.025C118.558 29.8417 118.383 30.6083 118.383 31.325V42ZM144.004 20.875C145.404 20.875 146.77 21.1667 148.104 21.75C149.437 22.3167 150.529 23.225 151.379 24.475C152.245 25.725 152.679 27.3583 152.679 29.375V42H146.304V30.475C146.304 28.7917 145.904 27.5417 145.104 26.725C144.32 25.9083 143.287 25.5 142.004 25.5C141.17 25.5 140.37 25.7333 139.604 26.2C138.854 26.65 138.237 27.2833 137.754 28.1C137.287 28.9 137.054 29.8167 137.054 30.85V42H130.704V21.475H137.054V24.75C137.237 24.1833 137.654 23.6 138.304 23C138.954 22.4 139.779 21.9 140.779 21.5C141.779 21.0833 142.854 20.875 144.004 20.875ZM180.027 9H186.302L199.002 42H192.352L189.777 34.875H176.577L173.952 42H167.277L180.027 9ZM178.627 29.35H187.727L183.202 16.55H183.127L178.627 29.35Z" fill="black"/>
</mask>
<g mask="url(#mask1_6_196)">
<path d="M33.225 42V43H34.225V42H33.225ZM26.875 42H25.875V43H26.875V42ZM26.875 21.475V20.475H25.875V21.475H26.875ZM33.225 21.475H34.225V20.475H33.225V21.475ZM33.225 24.8V25.8H34.225V24.8H33.225ZM33.1 24.8L32.14 24.52L31.7667 25.8H33.1V24.8ZM34.05 23.275L33.2936 22.6208L33.2885 22.6268L33.2835 22.6328L34.05 23.275ZM36.25 21.625L36.7099 22.5131L36.7222 22.5065L36.25 21.625ZM42.2 21.3L41.8534 22.238L41.8655 22.2425L41.8777 22.2466L42.2 21.3ZM43.875 22.1L44.7763 22.5333L45.121 21.8162L44.4997 21.3191L43.875 22.1ZM41.375 27.3L40.5989 27.9306L41.5931 29.1542L42.2763 27.7333L41.375 27.3ZM40.15 26.475L39.7131 27.3746L39.723 27.3792L40.15 26.475ZM35.325 26.925L35.9542 27.7022L35.9597 27.6978L35.9652 27.6932L35.325 26.925ZM33.75 29.025L34.6692 29.4189L34.672 29.4122L33.75 29.025ZM33.225 41H26.875V43H33.225V41ZM27.875 42V21.475H25.875V42H27.875ZM26.875 22.475H33.225V20.475H26.875V22.475ZM32.225 21.475V24.8H34.225V21.475H32.225ZM33.225 23.8H33.1V25.8H33.225V23.8ZM34.06 25.08C34.1166 24.886 34.3213 24.5083 34.8165 23.9172L33.2835 22.6328C32.7454 23.2751 32.3167 23.914 32.14 24.52L34.06 25.08ZM34.8064 23.9292C35.2364 23.4319 35.8582 22.9541 36.7099 22.5131L35.7901 20.737C34.7751 21.2626 33.9303 21.8848 33.2936 22.6208L34.8064 23.9292ZM36.7222 22.5065C37.4791 22.101 38.4336 21.875 39.625 21.875V19.875C38.183 19.875 36.8876 20.149 35.7778 20.7435L36.7222 22.5065ZM39.625 21.875C40.4756 21.875 41.2141 22.0017 41.8534 22.238L42.5466 20.362C41.6526 20.0316 40.6744 19.875 39.625 19.875V21.875ZM41.8777 22.2466C42.6344 22.5042 43.057 22.7262 43.2503 22.8809L44.4997 21.3191C44.0263 20.9404 43.3323 20.6291 42.5223 20.3533L41.8777 22.2466ZM42.9737 21.6667L40.4737 26.8667L42.2763 27.7333L44.7763 22.5333L42.9737 21.6667ZM42.1511 26.6694C41.7877 26.2222 41.2091 25.8693 40.577 25.5708L39.723 27.3792C40.2909 27.6474 40.5289 27.8445 40.5989 27.9306L42.1511 26.6694ZM40.5869 25.5755C39.8274 25.2066 38.9328 25.05 37.95 25.05V27.05C38.7339 27.05 39.306 27.1769 39.7131 27.3746L40.5869 25.5755ZM37.95 25.05C36.7037 25.05 35.5914 25.4013 34.6848 26.1568L35.9652 27.6932C36.4586 27.2821 37.0963 27.05 37.95 27.05V25.05ZM34.6958 26.1478C33.867 26.8187 33.2417 27.6528 32.828 28.6378L34.672 29.4122C34.9583 28.7305 35.383 28.1647 35.9542 27.7022L34.6958 26.1478ZM32.8309 28.6311C32.4399 29.5433 32.225 30.4446 32.225 31.325H34.225C34.225 30.7721 34.3602 30.1401 34.6692 29.4189L32.8309 28.6311ZM32.225 31.325V42H34.225V31.325H32.225ZM49.982 33.15V32.15H48.927L48.9835 33.2035L49.982 33.15ZM52.682 37.375L52.2419 38.2729L52.2487 38.2763L52.682 37.375ZM58.632 37.6L58.3273 36.6476L58.3216 36.6494L58.632 37.6ZM60.732 36.625L61.2924 37.4533L61.2976 37.4497L60.732 36.625ZM62.032 35.475L62.8616 34.9166L62.0879 33.7672L61.2407 34.8636L62.032 35.475ZM64.657 39.375L65.4379 39.9997L65.8968 39.4261L65.4866 38.8166L64.657 39.375ZM62.782 41L63.3153 41.8459L63.3201 41.8429L62.782 41ZM59.832 42.15L59.6022 41.1768L59.5942 41.1786L59.5863 41.1807L59.832 42.15ZM45.332 26.1L46.2152 26.5692L46.2171 26.5654L45.332 26.1ZM49.032 22.275L48.5359 21.4067L48.5321 21.409L49.032 22.275ZM60.482 22.125L60.0124 23.0079L60.0236 23.0137L60.482 22.125ZM65.432 32.35L64.4328 32.31L64.432 32.33V32.35H65.432ZM65.382 33.15V34.15H66.1628L66.3522 33.3925L65.382 33.15ZM59.507 29.225V30.225H60.5388L60.5065 29.1938L59.507 29.225ZM59.007 27.5L58.1078 27.9375L58.1125 27.9472L58.1175 27.9568L59.007 27.5ZM52.307 25.9L51.7955 25.0407L51.7864 25.0462L52.307 25.9ZM50.757 27.45L51.6209 27.9539L51.6267 27.9436L50.757 27.45ZM50.157 29.225L49.1607 29.1396L49.0677 30.225H50.157V29.225ZM48.9835 33.2035C49.0416 34.2884 49.3352 35.2857 49.8797 36.173L51.5844 35.127C51.2288 34.5476 51.0225 33.8783 50.9806 33.0965L48.9835 33.2035ZM49.8797 36.173C50.4386 37.0838 51.2394 37.7815 52.2419 38.2729L53.1222 36.4771C52.4247 36.1352 51.9254 35.6828 51.5844 35.127L49.8797 36.173ZM52.2487 38.2763C53.2799 38.772 54.4683 39 55.782 39V37C54.6958 37 53.8175 36.8113 53.1153 36.4737L52.2487 38.2763ZM55.782 39C56.9446 39 58.0033 38.8572 58.9424 38.5506L58.3216 36.6494C57.6274 36.8761 56.7862 37 55.782 37V39ZM58.9368 38.5524C59.8369 38.2644 60.6285 37.9024 61.2924 37.4533L60.1717 35.7967C59.7023 36.1143 59.0938 36.4023 58.3273 36.6476L58.9368 38.5524ZM61.2976 37.4497C61.9266 37.0184 62.4521 36.5669 62.8233 36.0864L61.2407 34.8636C61.0453 35.1165 60.7042 35.4316 60.1665 35.8003L61.2976 37.4497ZM61.2024 36.0334L63.8274 39.9334L65.4866 38.8166L62.8616 34.9166L61.2024 36.0334ZM63.8762 38.7503C63.4923 39.2301 62.9566 39.7022 62.244 40.1571L63.3201 41.8429C64.1741 41.2978 64.8884 40.6865 65.4379 39.9997L63.8762 38.7503ZM62.2487 40.1541C61.6024 40.5615 60.7308 40.9103 59.6022 41.1768L60.0618 43.1232C61.3333 42.823 62.4283 42.4051 63.3153 41.8459L62.2487 40.1541ZM59.5863 41.1807C58.5109 41.4533 57.1168 41.6 55.382 41.6V43.6C57.2139 43.6 58.7865 43.4467 60.0778 43.1193L59.5863 41.1807ZM55.382 41.6C53.2646 41.6 51.4528 41.1851 49.9181 40.3876L48.996 42.1624C50.8613 43.1316 52.9995 43.6 55.382 43.6V41.6ZM49.9181 40.3876C48.3892 39.5932 47.2056 38.4545 46.3508 36.9548L44.6133 37.9452C45.6584 39.7789 47.1249 41.1901 48.996 42.1624L49.9181 40.3876ZM46.3508 36.9548C45.5024 35.4664 45.057 33.6609 45.057 31.5H43.057C43.057 33.9391 43.5616 36.1002 44.6133 37.9452L46.3508 36.9548ZM45.057 31.5C45.057 29.6463 45.4497 28.0101 46.2152 26.5692L44.4489 25.6308C43.5144 27.3899 43.057 29.3537 43.057 31.5H45.057ZM46.2171 26.5654C46.9772 25.1198 48.0752 23.9821 49.532 23.141L48.5321 21.409C46.7555 22.4346 45.3869 23.8468 44.4469 25.6346L46.2171 26.5654ZM49.5282 23.1432C50.9812 22.3129 52.7607 21.875 54.907 21.875V19.875C52.4867 19.875 50.3495 20.3703 48.5359 21.4067L49.5282 23.1432ZM54.907 21.875C56.9276 21.875 58.6179 22.2661 60.0124 23.0079L60.9516 21.2421C59.2128 20.3172 57.1864 19.875 54.907 19.875V21.875ZM60.0236 23.0137C61.4273 23.7377 62.5076 24.7943 63.2798 26.2051L65.0342 25.2449C64.0732 23.4891 62.7035 22.1456 60.9404 21.2363L60.0236 23.0137ZM63.2798 26.2051C64.0473 27.6073 64.457 29.3659 64.457 31.525H66.457C66.457 29.1174 66.0001 27.0094 65.0342 25.2449L63.2798 26.2051ZM64.457 31.525C64.457 31.6348 64.4497 31.8894 64.4328 32.31L66.4312 32.39C66.4477 31.9773 66.457 31.6819 66.457 31.525H64.457ZM64.432 32.35C64.432 32.5383 64.428 32.6825 64.4215 32.7876C64.4141 32.9057 64.4058 32.9319 64.4119 32.9075L66.3522 33.3925C66.4201 33.1207 66.432 32.7314 66.432 32.35H64.432ZM65.382 32.15H49.982V34.15H65.382V32.15ZM60.5065 29.1938C60.4841 28.4748 60.2615 27.7539 59.8966 27.0432L58.1175 27.9568C58.3859 28.4795 58.4967 28.9086 58.5075 29.2562L60.5065 29.1938ZM59.9063 27.0625C59.5182 26.2648 58.9136 25.6109 58.1367 25.0929L57.0273 26.7571C57.5504 27.1058 57.8959 27.5018 58.1078 27.9375L59.9063 27.0625ZM58.1367 25.0929C57.2703 24.5153 56.189 24.275 54.982 24.275V26.275C55.9417 26.275 56.5938 26.468 57.0273 26.7571L58.1367 25.0929ZM54.982 24.275C53.7763 24.275 52.6932 24.5064 51.7955 25.0407L52.8185 26.7593C53.3208 26.4603 54.0211 26.275 54.982 26.275V24.275ZM51.7864 25.0462C50.977 25.5398 50.3315 26.1738 49.8873 26.9564L51.6267 27.9436C51.8825 27.4929 52.2704 27.0936 52.8276 26.7538L51.7864 25.0462ZM49.8933 26.9461C49.4824 27.6505 49.2255 28.3837 49.1607 29.1396L51.1534 29.3104C51.1886 28.8997 51.3318 28.4495 51.6209 27.9539L49.8933 26.9461ZM50.157 30.225H59.507V28.225H50.157V30.225ZM67.4699 21.475V20.475H66.4699V21.475H67.4699ZM71.1699 21.475V22.475H72.1699V21.475H71.1699ZM71.1699 13.05V12.05H70.1699V13.05H71.1699ZM77.4699 13.05H78.4699V12.05H77.4699V13.05ZM77.4699 21.475H76.4699V22.475H77.4699V21.475ZM82.3199 21.475H83.3199V20.475H82.3199V21.475ZM82.3199 26.75V27.75H83.3199V26.75H82.3199ZM77.4699 26.75V25.75H76.4699V26.75H77.4699ZM77.9449 36.475L77.0782 36.974L77.0851 36.9855L77.9449 36.475ZM80.7199 36.975L81.2344 37.8325L81.2498 37.8232L81.2649 37.8134L80.7199 36.975ZM81.3199 36.525L82.2163 36.0817L81.5202 34.6739L80.5391 35.9003L81.3199 36.525ZM83.5699 41.075L84.277 41.7821L84.7843 41.2748L84.4663 40.6317L83.5699 41.075ZM82.5949 41.6L82.1811 40.6896L82.1705 40.6945L82.5949 41.6ZM80.5199 42.275L80.2909 41.3016L80.2796 41.3042L80.2683 41.3072L80.5199 42.275ZM73.0199 40.975L72.3543 41.7213L72.36 41.7263L73.0199 40.975ZM71.1699 26.75H72.1699V25.75H71.1699V26.75ZM67.4699 26.75H66.4699V27.75H67.4699V26.75ZM67.4699 22.475H71.1699V20.475H67.4699V22.475ZM72.1699 21.475V13.05H70.1699V21.475H72.1699ZM71.1699 14.05H77.4699V12.05H71.1699V14.05ZM76.4699 13.05V21.475H78.4699V13.05H76.4699ZM77.4699 22.475H82.3199V20.475H77.4699V22.475ZM81.3199 21.475V26.75H83.3199V21.475H81.3199ZM82.3199 25.75H77.4699V27.75H82.3199V25.75ZM76.4699 26.75V34.175H78.4699V26.75H76.4699ZM76.4699 34.175C76.4699 35.2455 76.6388 36.2108 77.0782 36.974L78.8115 35.976C78.6176 35.6392 78.4699 35.0711 78.4699 34.175H76.4699ZM77.0851 36.9855C77.6029 37.8578 78.4519 38.275 79.4449 38.275V36.275C79.0712 36.275 78.9202 36.1589 78.8048 35.9645L77.0851 36.9855ZM79.4449 38.275C80.0849 38.275 80.7025 38.1516 81.2344 37.8325L80.2054 36.1175C80.0706 36.1984 79.8383 36.275 79.4449 36.275V38.275ZM81.2649 37.8134C81.4408 37.6991 81.5948 37.5939 81.7199 37.5C81.8216 37.4237 81.9806 37.2999 82.1008 37.1497L80.5391 35.9003C80.5755 35.8548 80.6002 35.8353 80.5864 35.8474C80.5779 35.8549 80.5573 35.872 80.5199 35.9C80.4451 35.9561 80.3324 36.0342 80.1749 36.1366L81.2649 37.8134ZM80.4235 36.9683L82.6735 41.5183L84.4663 40.6317L82.2163 36.0817L80.4235 36.9683ZM82.8628 40.3679C82.912 40.3187 82.942 40.3035 82.9095 40.3245C82.8865 40.3394 82.8444 40.3645 82.7771 40.4008C82.6427 40.4731 82.4468 40.5689 82.1811 40.6896L83.0087 42.5104C83.2931 42.3811 83.5346 42.2644 83.7253 42.1617C83.8787 42.0791 84.1098 41.9493 84.277 41.7821L82.8628 40.3679ZM82.1705 40.6945C81.7219 40.9048 81.1025 41.1106 80.2909 41.3016L80.749 43.2484C81.6373 43.0394 82.4013 42.7952 83.0194 42.5055L82.1705 40.6945ZM80.2683 41.3072C79.5328 41.4984 78.6779 41.6 77.6949 41.6V43.6C78.812 43.6 79.8404 43.4849 80.7716 43.2428L80.2683 41.3072ZM77.6949 41.6C76.0164 41.6 74.704 41.1233 73.6799 40.2237L72.36 41.7263C73.8025 42.9934 75.6068 43.6 77.6949 43.6V41.6ZM73.6855 40.2287C72.7382 39.3838 72.1699 38.0056 72.1699 35.875H70.1699C70.1699 38.3444 70.835 40.3662 72.3543 41.7213L73.6855 40.2287ZM72.1699 35.875V26.75H70.1699V35.875H72.1699ZM71.1699 25.75H67.4699V27.75H71.1699V25.75ZM68.4699 26.75V21.475H66.4699V26.75H68.4699ZM93.3492 35.7L92.5171 36.2547L92.5211 36.2606L93.3492 35.7ZM100.474 35.7L101.302 36.2606L101.306 36.2547L100.474 35.7ZM101.574 21.475V20.475H100.574V21.475H101.574ZM107.824 21.475H108.824V20.475H107.824V21.475ZM106.549 37.6L107.43 38.073L107.432 38.0692L106.549 37.6ZM102.824 41.3L103.297 42.1814L103.3 42.1796L102.824 41.3ZM90.9742 41.3L90.4947 42.1776L90.5055 42.1833L90.9742 41.3ZM87.2742 37.6L86.3911 38.0692L86.3932 38.073L87.2742 37.6ZM85.9992 21.475V20.475H84.9992V21.475H85.9992ZM92.2492 21.475H93.2492V20.475H92.2492V21.475ZM91.2492 31.3C91.2492 33.257 91.6394 34.9382 92.5171 36.2547L94.1813 35.1453C93.5922 34.2618 93.2492 33.0097 93.2492 31.3H91.2492ZM92.5211 36.2606C93.4873 37.6879 95.0273 38.325 96.8992 38.325V36.325C95.5045 36.325 94.6778 35.8788 94.1773 35.1394L92.5211 36.2606ZM96.8992 38.325C98.7834 38.325 100.334 37.6908 101.302 36.2606L99.6461 35.1394C99.1476 35.8759 98.3151 36.325 96.8992 36.325V38.325ZM101.306 36.2547C102.184 34.9382 102.574 33.257 102.574 31.3H100.574C100.574 33.0097 100.231 34.2618 99.6422 35.1453L101.306 36.2547ZM102.574 31.3V21.475H100.574V31.3H102.574ZM101.574 22.475H107.824V20.475H101.574V22.475ZM106.824 21.475V32.025H108.824V21.475H106.824ZM106.824 32.025C106.824 34.0057 106.427 35.6979 105.666 37.1308L107.432 38.0692C108.371 36.3021 108.824 34.2777 108.824 32.025H106.824ZM105.668 37.127C104.914 38.5321 103.816 39.6268 102.349 40.4204L103.3 42.1796C105.099 41.2065 106.485 39.8345 107.43 38.073L105.668 37.127ZM102.352 40.4187C100.915 41.1891 99.1115 41.6 96.8992 41.6V43.6C99.3536 43.6 101.5 43.1444 103.297 42.1814L102.352 40.4187ZM96.8992 41.6C94.7054 41.6 92.8999 41.1897 91.4429 40.4167L90.5055 42.1833C92.3152 43.1436 94.4597 43.6 96.8992 43.6V41.6ZM91.4537 40.4225C90.0028 39.6297 88.9111 38.5349 88.1553 37.127L86.3932 38.073C87.3373 39.8318 88.7123 41.2038 90.4947 42.1776L91.4537 40.4225ZM88.1573 37.1308C87.3961 35.6979 86.9992 34.0057 86.9992 32.025H84.9992C84.9992 34.2777 85.4524 36.3021 86.3911 38.0692L88.1573 37.1308ZM86.9992 32.025V21.475H84.9992V32.025H86.9992ZM85.9992 22.475H92.2492V20.475H85.9992V22.475ZM91.2492 21.475V31.3H93.2492V21.475H91.2492ZM118.383 42V43H119.383V42H118.383ZM112.033 42H111.033V43H112.033V42ZM112.033 21.475V20.475H111.033V21.475H112.033ZM118.383 21.475H119.383V20.475H118.383V21.475ZM118.383 24.8V25.8H119.383V24.8H118.383ZM118.258 24.8L117.298 24.52L116.925 25.8H118.258V24.8ZM119.208 23.275L118.452 22.6208L118.447 22.6268L118.442 22.6328L119.208 23.275ZM121.408 21.625L121.868 22.5131L121.88 22.5065L121.408 21.625ZM127.358 21.3L127.012 22.238L127.024 22.2425L127.036 22.2466L127.358 21.3ZM129.033 22.1L129.934 22.5333L130.279 21.8162L129.658 21.3191L129.033 22.1ZM126.533 27.3L125.757 27.9306L126.751 29.1542L127.434 27.7333L126.533 27.3ZM125.308 26.475L124.871 27.3746L124.881 27.3792L125.308 26.475ZM120.483 26.925L121.112 27.7022L121.118 27.6978L121.123 27.6932L120.483 26.925ZM118.908 29.025L119.827 29.4189L119.83 29.4122L118.908 29.025ZM118.383 41H112.033V43H118.383V41ZM113.033 42V21.475H111.033V42H113.033ZM112.033 22.475H118.383V20.475H112.033V22.475ZM117.383 21.475V24.8H119.383V21.475H117.383ZM118.383 23.8H118.258V25.8H118.383V23.8ZM119.218 25.08C119.275 24.886 119.48 24.5083 119.975 23.9172L118.442 22.6328C117.904 23.2751 117.475 23.914 117.298 24.52L119.218 25.08ZM119.965 23.9292C120.395 23.4319 121.016 22.9541 121.868 22.5131L120.948 20.737C119.933 21.2626 119.088 21.8848 118.452 22.6208L119.965 23.9292ZM121.88 22.5065C122.637 22.101 123.592 21.875 124.783 21.875V19.875C123.341 19.875 122.046 20.149 120.936 20.7435L121.88 22.5065ZM124.783 21.875C125.634 21.875 126.372 22.0017 127.012 22.238L127.705 20.362C126.811 20.0316 125.833 19.875 124.783 19.875V21.875ZM127.036 22.2466C127.793 22.5042 128.215 22.7262 128.409 22.8809L129.658 21.3191C129.185 20.9404 128.491 20.6291 127.68 20.3533L127.036 22.2466ZM128.132 21.6667L125.632 26.8667L127.434 27.7333L129.934 22.5333L128.132 21.6667ZM127.309 26.6694C126.946 26.2222 126.367 25.8693 125.735 25.5708L124.881 27.3792C125.449 27.6474 125.687 27.8445 125.757 27.9306L127.309 26.6694ZM125.745 25.5755C124.986 25.2066 124.091 25.05 123.108 25.05V27.05C123.892 27.05 124.464 27.1769 124.871 27.3746L125.745 25.5755ZM123.108 25.05C121.862 25.05 120.75 25.4013 119.843 26.1568L121.123 27.6932C121.617 27.2821 122.255 27.05 123.108 27.05V25.05ZM119.854 26.1478C119.025 26.8187 118.4 27.6528 117.986 28.6378L119.83 29.4122C120.117 28.7305 120.541 28.1647 121.112 27.7022L119.854 26.1478ZM117.989 28.6311C117.598 29.5433 117.383 30.4446 117.383 31.325H119.383C119.383 30.7721 119.518 30.1401 119.827 29.4189L117.989 28.6311ZM117.383 31.325V42H119.383V31.325H117.383ZM148.104 21.75L147.703 22.6662L147.712 22.6703L148.104 21.75ZM151.379 24.475L150.552 25.0373L150.557 25.0448L151.379 24.475ZM152.679 42V43H153.679V42H152.679ZM146.304 42H145.304V43H146.304V42ZM145.104 26.725L144.382 27.4173L144.389 27.4248L145.104 26.725ZM139.604 26.2L140.118 27.0575L140.123 27.0542L139.604 26.2ZM137.754 28.1L136.893 27.5907L136.89 27.5961L137.754 28.1ZM137.054 42V43H138.054V42H137.054ZM130.704 42H129.704V43H130.704V42ZM130.704 21.475V20.475H129.704V21.475H130.704ZM137.054 21.475H138.054V20.475H137.054V21.475ZM137.054 24.75H136.054L138.005 25.0578L137.054 24.75ZM140.779 21.5L141.15 22.4285L141.157 22.4258L141.163 22.4231L140.779 21.5ZM144.004 21.875C145.26 21.875 146.491 22.1359 147.703 22.6662L148.504 20.8338C147.05 20.1974 145.547 19.875 144.004 19.875V21.875ZM147.712 22.6703C148.861 23.1586 149.805 23.9387 150.552 25.0373L152.205 23.9127C151.252 22.5113 150.012 21.4747 148.495 20.8297L147.712 22.6703ZM150.557 25.0448C151.275 26.0807 151.679 27.4965 151.679 29.375H153.679C153.679 27.2201 153.215 25.3693 152.2 23.9052L150.557 25.0448ZM151.679 29.375V42H153.679V29.375H151.679ZM152.679 41H146.304V43H152.679V41ZM147.304 42V30.475H145.304V42H147.304ZM147.304 30.475C147.304 28.6527 146.872 27.1012 145.818 26.0252L144.389 27.4248C144.935 27.9822 145.304 28.9306 145.304 30.475H147.304ZM145.825 26.0328C144.827 24.9924 143.519 24.5 142.004 24.5V26.5C143.054 26.5 143.813 26.8244 144.382 27.4173L145.825 26.0328ZM142.004 24.5C140.973 24.5 139.994 24.7914 139.084 25.3458L140.123 27.0542C140.746 26.6753 141.368 26.5 142.004 26.5V24.5ZM139.089 25.3425C138.185 25.8852 137.454 26.6435 136.893 27.5907L138.614 28.6093C139.02 27.9232 139.522 27.4148 140.118 27.0575L139.089 25.3425ZM136.89 27.5961C136.324 28.5662 136.054 29.6606 136.054 30.85H138.054C138.054 29.9727 138.25 29.2338 138.617 28.6039L136.89 27.5961ZM136.054 30.85V42H138.054V30.85H136.054ZM137.054 41H130.704V43H137.054V41ZM131.704 42V21.475H129.704V42H131.704ZM130.704 22.475H137.054V20.475H130.704V22.475ZM136.054 21.475V24.75H138.054V21.475H136.054ZM138.005 25.0578C138.116 24.715 138.401 24.2707 138.982 23.7348L137.625 22.2652C136.906 22.9293 136.358 23.6516 136.102 24.4422L138.005 25.0578ZM138.982 23.7348C139.525 23.2334 140.239 22.7927 141.15 22.4285L140.407 20.5715C139.318 21.0073 138.382 21.5666 137.625 22.2652L138.982 23.7348ZM141.163 22.4231C142.034 22.0603 142.977 21.875 144.004 21.875V19.875C142.73 19.875 141.523 20.1064 140.394 20.5769L141.163 22.4231ZM180.027 9V8H179.341L179.094 8.6396L180.027 9ZM186.302 9L187.235 8.64083L186.989 8H186.302V9ZM199.002 42V43H200.458L199.935 41.6408L199.002 42ZM192.352 42L191.411 42.3399L191.65 43H192.352V42ZM189.777 34.875L190.717 34.5351L190.479 33.875H189.777V34.875ZM176.577 34.875V33.875H175.88L175.639 34.5293L176.577 34.875ZM173.952 42V43H174.649L174.89 42.3457L173.952 42ZM167.277 42L166.344 41.6396L165.819 43H167.277V42ZM178.627 29.35L177.684 29.0183L177.215 30.35H178.627V29.35ZM187.727 29.35V30.35H189.141L188.67 29.0167L187.727 29.35ZM183.202 16.55L184.145 16.2167L183.909 15.55H183.202V16.55ZM183.127 16.55V15.55H182.419L182.184 16.2183L183.127 16.55ZM180.027 10H186.302V8H180.027V10ZM185.369 9.35917L198.069 42.3592L199.935 41.6408L187.235 8.64083L185.369 9.35917ZM199.002 41H192.352V43H199.002V41ZM193.292 41.6601L190.717 34.5351L188.836 35.2149L191.411 42.3399L193.292 41.6601ZM189.777 33.875H176.577V35.875H189.777V33.875ZM175.639 34.5293L173.014 41.6543L174.89 42.3457L177.515 35.2207L175.639 34.5293ZM173.952 41H167.277V43H173.952V41ZM168.21 42.3604L180.96 9.3604L179.094 8.6396L166.344 41.6396L168.21 42.3604ZM178.627 30.35H187.727V28.35H178.627V30.35ZM188.67 29.0167L184.145 16.2167L182.259 16.8833L186.784 29.6833L188.67 29.0167ZM183.202 15.55H183.127V17.55H183.202V15.55ZM182.184 16.2183L177.684 29.0183L179.57 29.6817L184.07 16.8817L182.184 16.2183Z" fill="black"/>
</g>
</g>
</svg>
